<?xml version="1.0" encoding="UTF-8"?>
<svg version="1.1" xmlns="http://www.w3.org/2000/svg" width="118" height="118">
<path d="M0 0 C38.94 0 77.88 0 118 0 C118 38.94 118 77.88 118 118 C79.06 118 40.12 118 0 118 C0 79.06 0 40.12 0 0 Z " fill="#F3F1A0" transform="translate(0,0)"/>
<path d="M0 0 C0.66 0 1.32 0 2 0 C2 38.94 2 77.88 2 118 C-36.94 118 -75.88 118 -116 118 C-116 117.34 -116 116.68 -116 116 C-59.075 115.505 -59.075 115.505 -1 115 C-0.67 77.05 -0.34 39.1 0 0 Z " fill="#F8F4C4" transform="translate(116,0)"/>
<path d="M0 0 C2.375 1.5625 2.375 1.5625 4 4 C3.93875588 7.49091478 3.59363052 9.94465686 1.875 13 C-1.24312427 14.66299961 -3.68783759 13.84309589 -7 13 C-9.46943529 9.29584707 -9.46913089 7.37855495 -9 3 C-6.35893733 -0.03233122 -3.92985113 -0.68772395 0 0 Z " fill="#19190F" transform="translate(91,34)"/>
<path d="M0 0 C3.375 0.875 3.375 0.875 5.375 2.875 C5.81162786 6.8046507 5.97251439 9.01192366 3.6875 12.3125 C1.375 13.875 1.375 13.875 -1.125 14.4375 C-3.625 13.875 -3.625 13.875 -5.9375 11.6875 C-7.77456543 8.62572428 -8.338937 7.3554429 -7.625 3.875 C-5.27446179 0.30218192 -4.32956596 -0.14929538 0 0 Z " fill="#14130A" transform="translate(28.625,34.125)"/>
<path d="M0 0 C3.4375 0.9375 3.4375 0.9375 5.4375 2.0625 C7.10049961 5.18062427 6.28059589 7.62533759 5.4375 10.9375 C1.73334707 13.40693529 -0.18394505 13.40663089 -4.5625 12.9375 C-6.94710953 10.86058202 -7.4584746 9.53193084 -8 6.4375 C-7.5625 3.9375 -7.5625 3.9375 -6 1.5625 C-3.5625 -0.0625 -3.5625 -0.0625 0 0 Z " fill="#1A190E" transform="translate(41.5625,21.0625)"/>
<path d="M0 0 C2.4375 1.5625 2.4375 1.5625 4 4 C4 7.81153499 3.80074051 10.05097421 1.3125 13 C-1.86108915 14.37236288 -3.72882454 13.99557514 -7 13 C-9.46324069 9.30513897 -9.38991688 7.36706908 -9 3 C-6.84532543 -0.71082843 -4.00794956 -0.57256422 0 0 Z " fill="#1A180D" transform="translate(78,21)"/>
<path d="M0 0 C3.625 0.375 3.625 0.375 6.0625 2.0625 C7.625 4.375 7.625 4.375 8.1875 6.875 C7.625 9.375 7.625 9.375 5.4375 11.6875 C2.37572428 13.52456543 1.1054429 14.088937 -2.375 13.375 C-4.75 11.8125 -4.75 11.8125 -6.375 9.375 C-6.18506265 3.86681691 -5.97675105 0.66408345 0 0 Z " fill="#18180D" transform="translate(40.375,81.625)"/>
<path d="M0 0 C3.625 0.375 3.625 0.375 6.125 2 C7.625 4.375 7.625 4.375 7.625 7.4375 C6.48114006 10.79758858 5.77570125 11.79964938 2.625 13.375 C-0.6891051 13.95496839 -1.92644995 13.67009872 -4.75 11.8125 C-6.375 9.375 -6.375 9.375 -6.25 5.75 C-5.09824284 1.3075081 -4.60142226 0.51126914 0 0 Z " fill="#19170C" transform="translate(27.375,68.625)"/>
<path d="M0 0 C2 1.5625 2 1.5625 3 4 C2.875 7.625 2.875 7.625 2 11 C-1.46923881 13.31282587 -2.92205575 13.42478586 -7 13 C-8.875 12 -8.875 12 -10 10 C-10.41998341 7.14761266 -10.27946081 4.93433851 -10 2 C-6.29584707 -0.46943529 -4.37855495 -0.46913089 0 0 Z " fill="#15140C" transform="translate(79,82)"/>
<path d="M0 0 C2 1.5625 2 1.5625 3 4 C2.875 7.625 2.875 7.625 2 11 C-1 13 -1 13 -4.5625 12.75 C-8 12 -8 12 -10 10 C-10.54587156 3.99541284 -10.54587156 3.99541284 -8.9375 1.0625 C-5.84506242 -0.63335287 -3.44485259 -0.43060657 0 0 Z " fill="#17160C" transform="translate(92,69)"/>
<path d="M0 0 C0.33 0 0.66 0 1 0 C1.48461538 6.3 1.48461538 6.3 -0.6875 9.4375 C-3.38410809 11.25953249 -4.81126451 11.35430394 -8 11 C-8.33 10.34 -8.66 9.68 -9 9 C-7.02 8.67 -5.04 8.34 -3 8 C-2.67 7.01 -2.34 6.02 -2 5 C-1.34 5 -0.68 5 0 5 C0 3.35 0 1.7 0 0 Z " fill="#37351D" transform="translate(33,37)"/>
<path d="M0 0 C2.31 0.66 4.62 1.32 7 2 C7 3.32 7 4.64 7 6 C4.69 6 2.38 6 0 6 C0 4.02 0 2.04 0 0 Z " fill="#0B0A08" transform="translate(24,40)"/>
<path d="M0 0 C0 0.33 0 0.66 0 1 C-1.98 1 -3.96 1 -6 1 C-6.66 2.98 -7.32 4.96 -8 7 C-8.66 7 -9.32 7 -10 7 C-10.3125 4.6875 -10.3125 4.6875 -10 2 C-6.51622514 -0.98609274 -4.33645582 -1.36288612 0 0 Z " fill="#0D0A05" transform="translate(93,36)"/>
<path d="M0 0 C3.3125 -0.25 3.3125 -0.25 7 0 C8.9375 1.6875 8.9375 1.6875 10 4 C10.1875 6.75 10.1875 6.75 10 9 C7.84622436 6.37801226 6.59927826 4.35595828 6 1 C4.02 1 2.04 1 0 1 C0 0.67 0 0.34 0 0 Z " fill="#26220D" transform="translate(72,82)"/>
<path d="M0 0 C-2.66559313 1.77706209 -5.0280615 2.87548273 -8 4 C-7.67 4.99 -7.34 5.98 -7 7 C-7.66 7.99 -8.32 8.98 -9 10 C-9.25 6.6875 -9.25 6.6875 -9 3 C-6.29148704 -0.10977414 -4.00164289 -0.33347024 0 0 Z " fill="#2D2A14" transform="translate(91,34)"/>
<path d="M0 0 C0.66 0 1.32 0 2 0 C1.34 2.64 0.68 5.28 0 8 C-0.66 7.67 -1.32 7.34 -2 7 C-1.125 1.125 -1.125 1.125 0 0 Z " fill="#0C0B08" transform="translate(85,70)"/>
<path d="M0 0 C0 1.98 0 3.96 0 6 C-1.32 5.67 -2.64 5.34 -4 5 C-3.625 3.0625 -3.625 3.0625 -3 1 C-1 0 -1 0 0 0 Z " fill="#131209" transform="translate(46,27)"/>
<path d="M0 0 C0 3.63 0 7.26 0 11 C-0.66 11 -1.32 11 -2 11 C-1.979375 9.906875 -1.95875 8.81375 -1.9375 7.6875 C-1.81455548 4.05615809 -1.81455548 4.05615809 -3 1 C-1 0 -1 0 0 0 Z " fill="#D8D79B" transform="translate(83,21)"/>
</svg>
